<?xml version="1.0" encoding="UTF-8"?>
<svg id="Layer_1" xmlns="http://www.w3.org/2000/svg" viewBox="0 0 82.51 86.07">
  <defs>
    <style>
      .cls-1 {
        fill: #b71f25;
      }

      .cls-2 {
        fill: #fff;
      }

      .cls-3 {
        fill: #ccd0d6;
      }
    </style>
  </defs>
  <g>
    <path class="cls-3" d="M51.69,0c.51.1,1.07.05,1.53.3.3.44.25,1.02.37,1.52-.27.09-.82.29-1.1.38-.32-.2-.65-.39-.97-.59.05-.54.11-1.08.16-1.62M30.84,4.01c1.48-1.81,3.59-3.23,6-3.22,2.46-.11,4.59,1.36,6.17,3.11.96.17,1.92.42,2.9.4,1.07-.1,2.07-.63,3.16-.59,1.11.1,1.95.89,2.81,1.51.77-.01,1.56-.1,2.33.03,1.08.32,1.97,1.29,2.21,2.39,0,.65-.12,1.29-.17,1.93-.19,1.27.87,2.37.67,3.64-.32,1.86-2.16,3.24-4.01,3.26-1.06.02-1.91-.68-2.78-1.19-.88.59-1.75,1.28-2.81,1.48-1.16.25-2.29-.24-3.45-.28-1.19.52-2.27,1.61-3.68,1.39-1.51-.09-2.52-1.31-3.29-2.48-.78-.15-1.57-.29-2.35-.41-.7.51-1.37,1.1-2.21,1.38-.85.07-1.68-.14-2.51-.27-.88.82-1.79,1.84-3.09,1.84-2.21.24-4.58-1.76-4.17-4.08-.06-1.22.97-2.01,1.52-2.97.06-1.21-.45-2.41-.18-3.62.36-1.52,1.6-2.72,3.03-3.3,1.26-.45,2.62-.13,3.91.03M58.51,3.78c-.07-1.21,1.72-1.6,2.27-.56.74.88-.38,1.72-.87,2.38-.56-.5-1.57-.88-1.41-1.82M62.84,6.02c.39-.76,1.42-1.26,2.18-.69,1.04.67,2.07,1.4,2.96,2.28.15.83-.43,2.24-1.47,1.85-1.08-.33-2.11-.8-3.22-1.04-.28-.76-.77-1.57-.45-2.4M69.55,6.3c.63,0,1.26.02,1.9.03-.23.69-.51,1.51-1.36,1.57-.22-.52-.37-1.07-.53-1.61M20.19,7.96c.53.13,1.08.2,1.59.41.31.41.53.88.78,1.32-.28.31-.55.62-.82.92-.56.03-1.13.06-1.69.1-.33-.92-.26-1.87.15-2.75M59.49,8.7c.91-.87,2.48-.82,3.28.18.89.85.27,2.12.17,3.15-.27,1.24.18,2.77-.86,3.74-1.34,1.29-3.86.67-4.38-1.13-.37-1.13.28-2.18.88-3.08.14-.98-.02-2.21.9-2.86M75.81,10.47c-.52-.51-1.33-1.52-.28-2,.51.22.99.49,1.47.76-.39.41-.79.82-1.19,1.23M80.12,9.21c.51-.17,1.03-.34,1.54-.51.57.65,1.06,1.45.74,2.34-.64.26-1.33.33-2.01.46-.1-.76-.19-1.52-.28-2.28M70.8,9.58c.88-.25,1.79-.3,2.66.02-.04.62-.08,1.25-.12,1.87-.61.09-1.23.2-1.84.22-.4-.63-.51-1.39-.7-2.1M65.91,11.66c.44-.17.87-.34,1.31-.51.24.58.81,1.19.48,1.86-.4.55-1.2.37-1.78.52-.01-.62-.01-1.25-.01-1.87M76.38,12.69c.94-.65,2.4-.27,2.71.89.6,1.26-.91,2.64-2.16,2.21-1.43-.27-1.77-2.35-.55-3.1M69.62,12.96c.57,0,1.14,0,1.72,0,.8.82,1.01,1.87.63,2.95-.95.12-2.31.68-2.84-.46-.69-.83.14-1.7.5-2.48M34.71,16.53c.64.09,1.28.17,1.92.27-.01.38-.04,1.13-.06,1.51-.53-.02-1.05-.03-1.57-.11-.14-.55-.21-1.11-.29-1.67M48.78,17.45c.9-.56,2.18.25,1.94,1.34.42,1.64-2.67,1.82-2.6.27-.07-.61.05-1.32.66-1.61M52.89,18.43c.66-1.06,2.46-1.03,3.12.01.28,1.1.17,2.26.24,3.39-.2-.01-.59-.03-.79-.04-.97-.44-1.94-.91-2.87-1.44.08-.64.1-1.3.3-1.92M25.25,21.59c1.46-.32,2.95.05,4.36.48.19,3.03.68,6.04.78,9.08-.8-.35-1.59-.7-2.4-1.01.27.02.82.05,1.09.07-.02-.08-.08-.26-.1-.35.24-.03.72-.09.97-.13-.09-2.51-.28-5.02-.53-7.52-1.38-.24-2.78-.42-4.16-.64M40.66,23c1.89.12,2.97-2.01,4.88-1.86,2.26-.17,3.68,1.97,5.81,2.29.89-.26,1.86-.7,2.75-.19,1.07.5,2.26.64,3.34,1.09.64.69.46,1.74.63,2.59.09,1.17.66,2.68-.55,3.48-.98.99-2.36.61-3.43.01-1.17.83-2.59.92-3.97.71-.87.4-1.84,1.08-2.83.65-.74-.43-1.31-1.1-2.08-1.49-.87-.2-1.65.39-2.43.68-1.37.03-2.57.69-3.84,1.11-1.09-.18-2.23-.99-2.33-2.17-.14-.93.55-1.68.97-2.45-.08-1.1-.42-2.39.44-3.27.57-.91,1.62-1.19,2.64-1.18M59.33,22.27c.63.15,1.26.31,1.89.48-.24.4-.49.81-.73,1.21-.39-.06-.77-.12-1.15-.18,0-.51,0-1.01,0-1.52M67.21,23.58c.2-.36.42-.72.66-1.07.13.55.24,1.1.36,1.65-.35-.18-.68-.38-1.01-.58M62.59,24.1c1.01-.27,2.1-.14,2.86.65.7.44.53,1.35.66,2.04-.89-.21-1.8-.4-2.6-.86-.65-.36-.62-1.23-.92-1.83M34.92,25.91c.48-.02.96-.05,1.44-.07,0,.51,0,1.02,0,1.53-.48-.01-.96-.02-1.43-.03,0-.48-.01-.95-.02-1.43M59.73,26.13c.82-.21,2.03-.64,2.54.33.09,1.23-.17,2.46-.19,3.69-.38.31-.75.65-1.17.91-.81.2-1.47-.47-2.14-.8.27-1.39.61-2.77.97-4.14M68.94,26.81c.46-.18.94-.32,1.42-.46.02.52.04,1.04.07,1.56-.48.06-.95.12-1.43.17-.03-.43-.05-.85-.06-1.28M74.32,27.66c-.54-.6-.06-1.05.44-1.45.08.23.25.69.33.92-.19.13-.58.4-.77.53M78.75,26.9c.42-.08,1.48-.66,1.49.12.41.78-.48,1.18-.91,1.66-.24-.57-.54-1.14-.58-1.77M65.54,27.97c.42-.03.84-.06,1.26-.08-.04.42-.08.83-.12,1.25-.38-.09-.75-.18-1.12-.28,0-.22-.01-.67-.02-.89M74.51,28.91c.6.04,1.34-.28,1.82.21.14.59.18,1.2.25,1.81-.6-.02-1.37.39-1.81-.19-.48-.48-.21-1.23-.27-1.82M44.09,31.17c.51-.03,1.01-.05,1.51-.07-.14.43-.28.87-.46,1.29-.73.07-.79-.74-1.05-1.22M67.5,31.27c.75,0,1.49.01,2.24.03-.16.67-.2,1.4-.58,1.99-.37.04-.73.01-1.09-.07-.48-.52-.39-1.31-.56-1.95M52.6,32.78c-.02-.71.62-1.37,1.35-1.26.78.4.34,1.33.38,2.01-.59-.21-1.2-.39-1.72-.76M57.51,31.68c.64.22,1.58.05,1.94.76.06.46-.02.94-.21,1.37-.54.46-1.62.35-1.9-.36,0-.59.1-1.18.17-1.77h0Z"/>
    <path class="cls-1" d="M22.2,19.75c2.08-.2,4.17-.21,6.24.01,1.04.33,2.08.74,2.93,1.44.81,8.21,1.41,16.43,2.12,24.64.11-2.64.61-5.25.73-7.89.02-1.08.17-2.15.4-3.21,2.33-1.17,5.19-1.16,7.54-.06.08.21.24.63.33.84.3,3.83.57,7.68,1.02,11.5.06.97.1,1.94.16,2.9.55.07,1.11.15,1.66.22,0-1.32-.01-2.64,0-3.95,2.08-.46,4.11-1.13,6.2-1.57.02-.58.05-1.15.08-1.73,1.61-.36,3.23-.7,4.78-1.24,2.23-.08,4.33.84,6.47,1.36,0,.54,0,1.07,0,1.61,1.99.43,3.95,1,5.9,1.57.38.81,1.25,1.1,1.96,1.53,2.09,1.14,3.42,3.54,3.34,5.91,0,4.22-.02,8.43,0,12.65.18.08.56.24.74.32,1.01.23,2.01.5,3.01.79-.02,5.27,0,10.53-.02,15.8,1.19,0,2.37,0,3.55,0,.02,1.51.03,1.37,0,2.88-1.38-.5-5.68-.48-6.47-.76-2.47-.5-4.99-.46-7.47-.86-.02-8.95.01-17.9-.02-26.85-.65-.16-1.3-.3-1.96-.44-.41-.12-.82-.23-1.23-.32,0,0-1.02-.27-1.54-.38-1.29-.38-2.59-.7-3.89-1.07-.46-.11-.92-.2-1.38-.3-2.68-.65-5.32-1.43-8-2.08-2.7-.65-5.38-1.41-8.08-2.09-.59-.15-1.18-.26-1.78-.37-.11-.11-.33,0-.44-.12-.09.6-.2.86-.22,1.47-.07,7.44.02,22.79-.02,30.22-5.9-.5-34.53-.65-38.85.55-.01-5.09,0-10.18-.01-15.26,1.26-.38,2.54-.69,3.79-1.08.08-4.95-.16-9.9.13-14.84.99-2.48,3.3-4.67,6.08-4.72,2.66-.23,5.41,1.35,6.49,3.79.21-1.52.37-3.05.44-4.58.66-7.21,1.18-14.42,1.89-21.63.15-1.09-.02-2.25.47-3.26.78-.78,1.89-1.03,2.91-1.35M25.25,21.59c.07,2.2-.17,4.42.17,6.61,1.34.17,2.49.9,3.55,1.68.02.09.08.26.1.35-.27-.02-.82-.05-1.09-.07-.9-.19-1.83-.12-2.74-.15,0,2.46.02,4.92,0,7.38.49.06.98.12,1.47.18,1.28.57,2.42,1.39,3.47,2.31-.16-.02-.5-.07-.66-.09-1.39-.38-2.83-.55-4.27-.6,0,4.31,0,8.63,0,12.94,2.21-.55,4.4-1.24,6.66-1.6-.33-5.59-.9-11.19-1.4-16.76-.06-.87-.09-1.74-.13-2.61-.09-3.04-.59-6.05-.78-9.08-1.4-.43-2.89-.81-4.36-.48M38.44,35.23c0,1.41,0,2.81,0,4.22.22.02.65.08.86.1.59.38,1.18.75,1.77,1.13-.89-.03-1.77-.07-2.65-.11.01,1.57,0,3.14.01,4.71,1.18.32,2.28.88,3.25,1.62-1.08-.13-2.15-.31-3.23-.44-.02.69-.03,1.39-.05,2.09,1.3.27,2.59.63,3.9.91-.23-4.7-.66-9.39-1.15-14.07-.9-.08-1.81-.13-2.72-.17M57.23,44.93c-.07,2.58-.03,5.16-.01,7.74,1.14.1,2.25.38,3.38.6.07-.59.14-1.17.21-1.76.75-2.18,2.55-3.82,4.7-4.56-2.77-.62-5.49-1.49-8.28-2.03M6,52.91c-.06,4.3-.01,8.6,0,12.9.67-.16,1.33-.32,1.99-.5,0,1.29,0,2.59.03,3.88.18-.02.54-.06.72-.08.03-4.25.03-8.5.01-12.75,2.09-.53,4.17-1.12,6.27-1.61-.02-.63-.03-1.26-.04-1.88-.29-1-.63-2.07-1.51-2.72-.92-.92-2.28-1.03-3.49-1.18-1.95.41-3.85,1.81-3.98,3.94M63.63,50.8c-.1.18-.31.53-.42.71-.18.84-.32,1.68-.41,2.54.43.06.85.13,1.28.19.46.15.92.29,1.39.43.64.14,1.29.23,1.94.33-.03-2.03,0-4.06-.05-6.08-1.41.23-2.77.77-3.74,1.87M69.05,49.28c-.04,5.99.02,11.99-.03,17.98.05.78-.21,1.78.69,2.19.22-1.36.14-2.74.15-4.12.66.18,1.33.35,1.99.51.03-4.43,0-8.87,0-13.3-.45-1.43-1.45-2.61-2.8-3.27M30.36,57.08l-.27.21c.02,1.08.02,2.16.01,3.24,1.5-.29,5.23-1.18,5.48-1.25.14-1.13.07-2.28.09-3.41-1.74.52-3.52.92-5.31,1.22M21.03,59.34c.02,1.1-.03,2.2.2,3.27,1.31-.35,4.96-1.11,5.3-1.13.02-1.18.02-2.37.01-3.55-1.83.52-3.69.89-5.52,1.41M11.99,61.29c.01,1.14.02,2.28.03,3.42,1.81-.44,3.62-.82,5.43-1.22.03-1.15.06-2.29.03-3.44-1.86.31-3.62,1.03-5.49,1.24M30.31,63.71c-.03,1.13-.02,2.25-.01,3.38.68-.18,1.35-.35,2.03-.51,1.1-.23,2.2-.47,3.3-.67.02-1.13.02-2.27.01-3.4-1.78.43-3.54.86-5.34,1.2M21.33,65.77c-.08.19-.23.57-.3.76.02.88.08,1.76.21,2.63.68-.17,1.36-.33,2.05-.48,1.08-.23,2.17-.48,3.25-.68.02-1.14.02-2.28.01-3.41-1.74.39-3.47.81-5.22,1.18M12.05,67.91c-.05,1.13-.05,2.26-.03,3.39,1.8-.47,3.61-.9,5.44-1.2,0-1.16.01-2.31.01-3.47-1.82.39-3.6.91-5.42,1.28M42.15,55.86c.78.22,1.56.42,2.33.67.48.06.97.12,1.46.18.54.14,1.08.27,1.63.39.03,1.14.02,2.29,0,3.44-1.8-.39-3.6-.8-5.4-1.2-.01-1.16-.02-2.32-.03-3.48M51.27,61.44c0-1.18-.05-2.35-.01-3.53.31.09.94.28,1.26.37.47.1.95.21,1.42.33.96.19,1.92.42,2.89.6,0,1.16,0,2.31,0,3.47-1.86-.39-3.69-.89-5.56-1.24M60.37,60.04c1.85.44,3.71.84,5.53,1.4,0,1.1,0,2.19-.01,3.29-1.44-.28-2.86-.67-4.31-.9-.43-.12-.87-.22-1.3-.32.01-1.15.06-2.31.09-3.46M41.99,62.46c1.87.35,3.7.88,5.57,1.23.03,1.15.03,2.29,0,3.45-.79-.2-1.57-.39-2.36-.56-1-.21-2-.43-3-.63-.18-1.15-.22-2.32-.2-3.48M51.25,64.53c1.48.31,2.93.71,4.41,1,.37.09.74.21,1.11.33.11,1.12.06,2.24.06,3.37-1.86-.4-3.7-.86-5.56-1.21-.04-1.16-.03-2.32-.01-3.48M60.31,66.61c1.87.38,3.72.87,5.58,1.3,0,1.14,0,2.28,0,3.42-1.86-.41-3.7-.88-5.58-1.22-.02-1.17-.03-2.34,0-3.5h0Z"/>
    <path class="cls-2" d="M25.25,21.59c1.95-.12,2.97.24,4.36.48.25,2.5.66,6.08.76,8.59-.24.03-.7-.6-.94-.57-1.07-.77-2.66-1.73-4-1.9-.34-2.19-.1-4.4-.17-6.61M25.24,30c.91.03,1.84-.04,2.74.15.81.3,1.58.17,2.38.52.03.87.09,2.23.15,3.1.5,5.58,1.07,11.17,1.4,16.76-2.26.36-4.44,1.05-6.66,1.6,0-4.31,0-8.63,0-12.94,1.44.05,2.88.22,4.27.6.16.02.5.07.66.09-1.05-.91-2.19-1.74-3.47-2.31-.49-.07-.98-.13-1.47-.18.02-2.46,0-4.92,0-7.38M38.44,35.23c.91.03,1.81.08,2.72.17.5,4.68.93,9.37,1.15,14.07-1.3-.28-2.59-.64-3.9-.91.02-.69.03-1.39.05-2.09,1.08.13,2.15.32,3.23.44-.98-.74-2.07-1.3-3.25-1.62,0-1.57,0-3.14-.01-4.71.89.03,1.77.08,2.65.11-.59-.38-1.18-.76-1.77-1.13-.22-.02-.65-.08-.86-.1-.01-1.41-.01-2.82,0-4.22M57.23,44.93c2.79.54,5.5,1.41,8.28,2.03-2.16.74-3.96,2.38-4.7,4.56-.07.59-.14,1.17-.21,1.76-1.12-.23-2.24-.5-3.38-.6-.02-2.58-.06-5.16.01-7.74M6,52.91c.13-2.14,2.03-3.54,3.98-3.94,1.22.16,2.57.27,3.49,1.18.87.66,1.22,1.72,1.51,2.72,0,.63.02,1.26.04,1.88-2.1.5-4.18,1.09-6.27,1.61.02,4.25.02,8.5-.01,12.75-.18.02-.54.06-.72.08-.03-1.29-.03-2.59-.03-3.88-.66.17-1.33.34-1.99.5-.01-4.3-.05-8.6,0-12.9M63.63,50.8c.96-1.1,2.32-1.64,3.74-1.87.05,2.03.02,4.06.05,6.08-.65-.1-1.3-.2-1.94-.33-.47-.14-.93-.28-1.39-.43-.43-.07-.85-.13-1.28-.19.08-.86.23-1.7.41-2.54.1-.18.31-.53.42-.71M69.05,49.28c1.35.66,2.34,1.83,2.8,3.27,0,4.43.03,8.87,0,13.3-.67-.16-1.33-.33-1.99-.51,0,1.37.07,2.76-.15,4.12-.9-.42-.64-1.42-.69-2.19.05-6,0-11.99.03-17.98M30.36,57.08c1.79-.3,3.57-.7,5.31-1.22-.02,1.14.05,2.28-.09,3.41-.24.07-.74.21-.98.28v.12c-1.52.11-3,.56-4.5.85.01-1.08.01-2.16-.01-3.24l.37.08-.09-.29M21.03,59.34c1.83-.52,3.69-.89,5.52-1.41,0,1.19,0,2.37-.01,3.55-.35.02-1.05.06-1.4.08.02.05.07.16.09.21-1.36.1-2.67.5-3.99.84-.23-1.08-.18-2.18-.2-3.27M11.99,61.29c1.87-.21,3.63-.93,5.49-1.24.03,1.15,0,2.29-.03,3.44-1.81.4-3.63.78-5.43,1.22,0-1.14-.01-2.28-.03-3.42M30.31,63.71c1.79-.34,3.56-.77,5.34-1.2.01,1.13.01,2.26-.01,3.4-1.11.21-2.2.44-3.3.67-.68.16-1.36.33-2.03.51-.01-1.13-.02-2.26.01-3.38M21.33,65.77c1.75-.37,3.48-.79,5.22-1.18.01,1.13.01,2.27-.01,3.41-1.09.21-2.17.45-3.25.68-.69.15-1.37.3-2.05.48-.13-.87-.19-1.75-.21-2.63.08-.19.23-.57.3-.76M12.05,67.91c1.82-.36,3.61-.89,5.42-1.28,0,1.16,0,2.31-.01,3.47-1.83.29-3.64.73-5.44,1.2-.01-1.13-.02-2.26.03-3.39h0Z"/>
  </g>
  <polygon class="cls-1" points="57.68 83.81 57.68 76.47 52.57 75.96 52.57 83.36 57.68 83.81"/>
  <polygon class="cls-2" points="28.84 29.52 28.97 29.87 29.08 30.22 27.8 30.11 28.03 30.63 29.31 30.73 30.22 30.73 30.22 30.3 29.2 29.65 28.84 29.52"/>
</svg>